<?xml version="1.0" standalone="no"?>
<!DOCTYPE svg PUBLIC "-//W3C//DTD SVG 20010904//EN"
 "http://www.w3.org/TR/2001/REC-SVG-20010904/DTD/svg10.dtd">
<svg version="1.0" xmlns="http://www.w3.org/2000/svg"
 width="225.000000pt" height="225.000000pt" viewBox="0 0 225.000000 225.000000"
 preserveAspectRatio="xMidYMid meet">

<g transform="translate(0.000000,225.000000) scale(0.100000,-0.100000)"
fill="#000000" stroke="none">
<path d="M673 1669 c-45 -13 -65 -44 -113 -173 -45 -123 -46 -145 -9 -197 11
-15 28 -31 39 -34 14 -5 20 -17 22 -53 2 -34 7 -47 18 -47 10 0 16 12 18 36 3
34 6 38 40 44 45 8 81 27 106 54 l18 20 30 -29 c58 -58 153 -62 213 -8 l33 29
25 -25 c55 -55 156 -54 219 3 l30 27 28 -27 c31 -31 99 -53 139 -44 71 15 122
75 120 142 -1 51 -83 245 -113 268 -26 19 -42 20 -429 22 -227 1 -416 -3 -434
-8z m845 -54 c22 -23 92 -204 92 -238 0 -33 -27 -67 -67 -83 -66 -28 -146 16
-160 88 -3 16 -12 28 -19 28 -8 0 -14 8 -15 18 0 10 -3 12 -6 5 -3 -10 -38
-13 -123 -13 l-119 0 -4 68 -3 67 -2 -72 c-1 -40 -6 -73 -11 -73 -5 0 -12 -12
-16 -27 -16 -67 -74 -109 -135 -97 -38 8 -85 53 -95 91 -3 15 -12 31 -18 35
-7 4 -60 8 -119 8 -106 0 -108 0 -114 -25 -3 -14 -10 -25 -15 -25 -5 0 -9 2
-9 4 0 16 85 224 96 236 20 20 127 25 521 25 309 0 324 -1 341 -20z m-731
-237 c-3 -8 -6 -5 -6 6 -1 11 2 17 5 13 3 -3 4 -12 1 -19z m-17 -42 c0 -2 -8
-10 -17 -17 -16 -13 -17 -12 -4 4 13 16 21 21 21 13z m391 -23 c13 -16 12 -17
-3 -4 -10 7 -18 15 -18 17 0 8 8 3 21 -13z"/>
<path d="M822 1525 c0 -16 2 -22 5 -12 2 9 2 23 0 30 -3 6 -5 -1 -5 -18z"/>
<path d="M1321 1534 c0 -11 3 -14 6 -6 3 7 2 16 -1 19 -3 4 -6 -2 -5 -13z"/>
<path d="M1332 1480 c0 -19 2 -27 5 -17 2 9 2 25 0 35 -3 9 -5 1 -5 -18z"/>
<path d="M812 1460 c0 -19 2 -27 5 -17 2 9 2 25 0 35 -3 9 -5 1 -5 -18z"/>
<path d="M1537 1174 c-4 -4 -7 -110 -7 -235 0 -224 0 -228 -22 -243 -19 -14
-71 -16 -360 -16 l-338 0 2 208 3 207 120 0 120 0 5 -170 c4 -151 7 -170 23
-173 16 -3 17 11 17 177 l0 181 -25 16 c-20 13 -47 15 -150 12 -112 -3 -128
-5 -141 -22 -11 -16 -14 -64 -14 -228 l0 -208 -39 0 c-22 0 -48 7 -60 18 -19
16 -21 29 -23 157 -3 117 -6 140 -18 140 -13 0 -15 -24 -18 -147 -2 -143 -2
-147 22 -175 l24 -28 432 0 432 0 24 28 24 29 -2 235 c-3 224 -8 260 -31 237z"/>
<path d="M614 1127 c-11 -29 0 -102 16 -102 19 0 22 106 3 112 -7 3 -16 -2
-19 -10z"/>
<path d="M1192 1124 c-20 -14 -22 -23 -22 -113 0 -135 1 -136 135 -136 134 0
135 1 135 136 0 90 -2 99 -22 113 -32 22 -194 22 -226 0z m206 -113 c2 -61 -1
-87 -10 -92 -15 -10 -139 -12 -162 -3 -13 5 -16 23 -16 88 0 46 3 86 7 90 4 4
46 5 93 4 l85 -3 3 -84z"/>
<path d="M844 937 c-3 -8 -4 -36 -2 -63 2 -36 7 -49 18 -49 20 0 22 116 3 122
-7 3 -16 -2 -19 -10z"/>
</g>
</svg>
